<?xml version="1.0" encoding="utf-8"?>
<!-- Generator: Adobe Illustrator 27.2.0, SVG Export Plug-In . SVG Version: 6.00 Build 0)  -->
<svg version="1.1" id="Layer_1" xmlns="http://www.w3.org/2000/svg" xmlns:xlink="http://www.w3.org/1999/xlink" x="0px" y="0px"
	 viewBox="0 0 150 150" style="enable-background:new 0 0 150 150;" xml:space="preserve">
<style type="text/css">
	.st0{fill:url(#SVGID_1_);}
	.st1{fill:#21D789;}
	.st2{fill:#3BEA62;}
	.st3{fill:url(#SVGID_00000178885946753450010070000013120312217796310921_);}
	.st4{fill:url(#SVGID_00000037690781576326308660000003648635752649043636_);stroke:#FFFFFF;stroke-miterlimit:10;}
	.st5{fill:#21D789;stroke:#FFFFFF;stroke-miterlimit:10;}
	.st6{fill:#21D789;stroke:#FFFFFF;stroke-linejoin:round;stroke-miterlimit:10;}
	
		.st7{fill:url(#SVGID_00000011004616397593325140000003020429254433655739_);stroke:#FFFFFF;stroke-width:0.5;stroke-miterlimit:10;}
	.st8{fill:#21D789;stroke:#FFFFFF;stroke-width:0.5;stroke-miterlimit:10;}
	.st9{fill:#21D789;stroke:#FFFFFF;stroke-width:0.5;stroke-linejoin:round;stroke-miterlimit:10;}
	.st10{fill:#FFFFFF;}
	.st11{fill:url(#XMLID_00000127038653177896046360000005859396969097826453_);}
	.st12{fill:none;stroke:#000000;stroke-width:2;stroke-miterlimit:10;}
	.st13{fill:none;stroke:#000000;stroke-width:2;stroke-linecap:round;stroke-miterlimit:10;}
	.st14{fill:url(#SVGID_00000111873841122404844800000009042043953206895536_);}
	.st15{fill:url(#SVGID_00000015352273875991941670000001813497720857921974_);}
	.st16{fill:url(#SVGID_00000164500069595038346110000000572503230137316003_);}
	.st17{fill:url(#SVGID_00000050639583739063333590000008466227151501776000_);}
	.st18{fill:url(#SVGID_00000036951359640093562460000011033997586044376742_);}
	.st19{fill:url(#SVGID_00000018949586988898443870000010732469179707562667_);}
	.st20{fill:url(#SVGID_00000148632025217417922930000006826633150331406509_);}
	.st21{fill:url(#SVGID_00000067226295727531073970000004030707532732394418_);}
	.st22{fill:url(#SVGID_00000114072113974689837070000010448430590767630253_);}
	.st23{fill:#FFFFFF;stroke:#000000;stroke-width:2;stroke-miterlimit:10;}
	.st24{fill:url(#SVGID_00000170991011018443792220000005707594585679604903_);}
	.st25{fill:url(#SVGID_00000148658970677977614330000007446059349604524456_);}
	.st26{stroke:#000000;stroke-width:2;stroke-miterlimit:10;}
	.st27{fill:url(#SVGID_00000002351864682348301710000006304592594561744266_);}
	.st28{fill:#07C3F2;}
	.st29{fill:#FDB60D;}
	.st30{fill:none;stroke:#000000;stroke-miterlimit:10;}
	.st31{fill:#087CFA;}
	.st32{fill:none;stroke:#000000;stroke-linecap:round;stroke-linejoin:round;stroke-miterlimit:10;}
	.st33{fill:#087CFA;stroke:#231F20;stroke-linecap:round;stroke-linejoin:round;stroke-miterlimit:10;}
</style>
<g>
	<g>
		<radialGradient id="SVGID_1_" cx="131.7832" cy="36.9938" r="94.8854" gradientUnits="userSpaceOnUse">
			<stop  offset="3.781280e-02" style="stop-color:#21D789"/>
			<stop  offset="0.8948" style="stop-color:#AF1DF5"/>
			<stop  offset="1" style="stop-color:#AF1DF5"/>
		</radialGradient>
		<path style="fill:url(#SVGID_1_);stroke:#FFFFFF;stroke-miterlimit:10;" d="M79.3,103.7H59V0.6h20.3c28.5,0,51.5,23.1,51.5,51.5v0
			C130.8,80.6,107.8,103.7,79.3,103.7z"/>
		<g>
			<rect x="59" y="20.8" class="st5" width="8.3" height="128.5"/>
		</g>
		<g>
			<rect x="50.7" y="0.6" class="st5" width="8.3" height="128.5"/>
		</g>
		<path class="st6" d="M33.6,10.7c2.8,2.8,7,15.9,7,15.9s-13.1-4.2-15.9-7S19.2,5.3,19.2,5.3S30.8,7.9,33.6,10.7z"/>
		<path class="st6" d="M36.5,37.3c-2.1,2.1-11.8,5.1-11.8,5.1s3.1-9.7,5.1-11.8s10.6-4,10.6-4S38.6,35.3,36.5,37.3z"/>
		<path class="st6" d="M84.4,119.7c-2.8-2.8-7-15.9-7-15.9s13.1,4.2,15.9,7c2.8,2.8,5.4,14.4,5.4,14.4S87.2,122.5,84.4,119.7z"/>
		<path class="st6" d="M81.4,93.1c2.1-2.1,11.8-5.1,11.8-5.1s-3.1,9.7-5.1,11.8c-2.1,2.1-10.6,4-10.6,4S79.4,95.2,81.4,93.1z"/>
		<g>
			<rect x="67.3" y="14.9" class="st5" width="8.3" height="128.5"/>
		</g>
		<g>
			<rect x="42.4" y="17.6" class="st5" width="8.3" height="128.5"/>
		</g>
	</g>
	<g>
		<g>
			<path class="st5" d="M67.2,48.4h-8c-1.4,0-2.5-1.1-2.5-2.5v0c0-1.4,1.1-2.5,2.5-2.5h8c1.4,0,2.5,1.1,2.5,2.5v0
				C69.7,47.3,68.5,48.4,67.2,48.4z"/>
		</g>
		<g>
			<path class="st5" d="M58.9,20.1h-8c-1.4,0-2.5-1.1-2.5-2.5v0c0-1.4,1.1-2.5,2.5-2.5h8c1.4,0,2.5,1.1,2.5,2.5v0
				C61.4,19,60.2,20.1,58.9,20.1z"/>
		</g>
		<g>
			<path class="st5" d="M58.9,66.4h-8c-1.4,0-2.5-1.1-2.5-2.5v0c0-1.4,1.1-2.5,2.5-2.5h8c1.4,0,2.5,1.1,2.5,2.5v0
				C61.4,65.3,60.2,66.4,58.9,66.4z"/>
		</g>
		<g>
			<path class="st5" d="M75.5,30.4h-8c-1.4,0-2.5-1.1-2.5-2.5v0c0-1.4,1.1-2.5,2.5-2.5h8c1.4,0,2.5,1.1,2.5,2.5v0
				C78,29.2,76.8,30.4,75.5,30.4z"/>
		</g>
		<g>
			<path class="st5" d="M50.5,29.2h-8c-1.4,0-2.5-1.1-2.5-2.5v0c0-1.4,1.1-2.5,2.5-2.5h8c1.4,0,2.5,1.1,2.5,2.5v0
				C53,28.1,51.9,29.2,50.5,29.2z"/>
		</g>
		<g>
			<path class="st5" d="M75.5,125.1h-8c-1.4,0-2.5-1.1-2.5-2.5v0c0-1.4,1.1-2.5,2.5-2.5h8c1.4,0,2.5,1.1,2.5,2.5v0
				C78,124,76.9,125.1,75.5,125.1z"/>
		</g>
		<g>
			<path class="st5" d="M67.2,134.1h-8c-1.4,0-2.5-1.1-2.5-2.5l0,0c0-1.4,1.1-2.5,2.5-2.5h8c1.4,0,2.5,1.1,2.5,2.5l0,0
				C69.7,133,68.5,134.1,67.2,134.1z"/>
		</g>
		<g>
			<path class="st5" d="M50.5,84.4h-8c-1.4,0-2.5-1.1-2.5-2.5l0,0c0-1.4,1.1-2.5,2.5-2.5h8c1.4,0,2.5,1.1,2.5,2.5l0,0
				C53,83.3,51.9,84.4,50.5,84.4z"/>
		</g>
		<g>
			<path class="st5" d="M67.2,93h-8c-1.4,0-2.5-1.1-2.5-2.5l0,0c0-1.4,1.1-2.5,2.5-2.5h8c1.4,0,2.5,1.1,2.5,2.5l0,0
				C69.7,91.9,68.6,93,67.2,93z"/>
		</g>
		<g>
			<path class="st5" d="M58.9,111h-8c-1.4,0-2.5-1.1-2.5-2.5l0,0c0-1.4,1.1-2.5,2.5-2.5h8c1.4,0,2.5,1.1,2.5,2.5l0,0
				C61.4,109.9,60.3,111,58.9,111z"/>
		</g>
		<g>
			<path class="st5" d="M75.5,75h-8c-1.4,0-2.5-1.1-2.5-2.5l0,0c0-1.4,1.1-2.5,2.5-2.5h8c1.4,0,2.5,1.1,2.5,2.5l0,0
				C78,73.9,76.9,75,75.5,75z"/>
		</g>
		<g>
			<path class="st5" d="M50.6,129h-8c-1.4,0-2.5-1.1-2.5-2.5l0,0c0-1.4,1.1-2.5,2.5-2.5h8c1.4,0,2.5,1.1,2.5,2.5l0,0
				C53.1,127.9,51.9,129,50.6,129z"/>
		</g>
	</g>
</g>
</svg>
